<svg id="svg" version="1.1" xmlns="http://www.w3.org/2000/svg" xmlns:xlink="http://www.w3.org/1999/xlink" width="400" height="400" viewBox="0, 0, 400,400"><g id="svgg"><path id="path0" d="M4.297 41.705 C 3.007 42.269,1.512 43.260,0.974 43.908 C 0.197 44.845,0.037 76.924,0.193 200.389 L 0.391 355.691 2.596 357.338 L 4.802 358.984 200.000 358.984 L 395.198 358.984 397.404 357.338 L 399.609 355.691 399.609 200.000 L 399.609 44.309 397.404 42.662 L 395.198 41.016 200.919 40.848 C 42.120 40.712,6.213 40.868,4.297 41.705 M385.938 200.000 L 385.938 344.531 200.000 344.531 L 14.063 344.531 14.063 200.000 L 14.063 55.469 200.000 55.469 L 385.938 55.469 385.938 200.000 M98.819 118.696 C 61.182 132.102,63.348 183.709,101.953 193.349 C 128.933 200.087,154.492 174.418,148.043 147.062 C 142.924 125.352,118.939 111.530,98.819 118.696 M115.851 132.412 C 142.408 139.329,139.020 177.962,111.719 179.535 C 82.415 181.223,76.939 137.761,105.737 132.064 C 110.491 131.123,110.967 131.140,115.851 132.412 M269.996 161.133 C 268.545 162.529,254.263 178.086,238.258 195.703 C 222.254 213.320,207.804 229.133,206.148 230.842 L 203.137 233.949 186.098 216.975 C 166.843 197.792,165.891 197.248,160.102 202.118 C 140.699 218.445,43.019 305.303,42.063 307.080 C 38.571 313.569,46.386 320.337,52.557 316.168 C 53.514 315.522,79.258 292.997,109.766 266.113 L 165.234 217.234 201.598 253.539 C 242.372 294.247,240.725 292.989,246.154 287.560 C 251.167 282.547,250.646 281.664,231.098 261.992 L 213.759 244.542 215.760 242.388 C 216.860 241.204,230.942 225.779,247.054 208.110 L 276.348 175.986 307.901 204.916 C 358.707 251.499,355.145 248.438,358.538 248.438 C 362.794 248.438,365.625 245.632,365.625 241.413 C 365.625 237.342,368.068 239.791,322.256 197.939 C 275.098 154.859,279.514 158.594,275.743 158.594 C 273.297 158.594,272.071 159.135,269.996 161.133 " stroke="none" fill="#000000" fill-rule="evenodd"></path></g></svg>