<svg id="svg" version="1.1"
  xmlns="http://www.w3.org/2000/svg"
  xmlns:xlink="http://www.w3.org/1999/xlink" width="400" height="400" viewBox="0, 0, 400,400">
  <g id="svgg">
    <path id="path0" d="M33.594 41.849 C 18.961 45.018,6.860 56.013,1.968 70.585 L 0.000 76.447 0.000 200.000 L -0.000 323.553 1.952 329.369 C 6.462 342.802,16.834 353.097,30.046 357.254 L 35.547 358.984 200.000 358.984 L 364.453 358.984 369.954 357.254 C 383.166 353.097,393.538 342.802,398.048 329.369 L 400.000 323.553 400.000 200.000 L 400.000 76.447 398.032 70.585 C 393.079 55.831,380.989 44.963,366.016 41.805 C 358.004 40.116,41.405 40.157,33.594 41.849 M361.876 59.471 C 373.013 61.832,380.490 70.106,382.107 81.861 C 382.523 84.881,382.743 122.109,382.626 169.529 L 382.422 251.949 359.043 218.748 C 346.184 200.487,333.754 182.988,331.419 179.861 C 317.348 161.017,291.466 156.573,271.898 169.640 C 265.600 173.845,264.660 175.026,231.566 220.309 C 195.700 269.382,196.416 268.639,184.282 269.364 C 175.647 269.880,174.716 269.428,148.107 251.790 C 119.721 232.974,116.996 231.490,107.956 229.917 C 91.875 227.119,87.598 228.914,48.744 254.763 L 17.188 275.756 17.203 181.042 C 17.212 128.949,17.536 84.137,17.923 81.458 C 19.522 70.402,26.694 62.266,37.109 59.692 C 42.496 58.361,355.632 58.148,361.876 59.471 M148.047 90.171 C 94.793 102.474,85.417 174.068,133.760 199.254 C 161.885 213.906,198.297 202.355,212.467 174.285 C 234.572 130.494,195.325 79.249,148.047 90.171 M170.590 108.255 C 187.820 112.649,200.781 129.396,200.781 147.266 C 200.781 183.157,157.474 201.099,132.096 175.721 C 103.368 146.993,131.201 98.211,170.590 108.255 M306.919 182.620 C 313.171 185.529,314.559 187.296,350.024 237.487 L 382.813 283.891 382.797 298.782 C 382.766 327.554,377.926 337.218,361.876 340.547 C 356.023 341.762,43.977 341.762,38.124 340.547 C 23.563 337.527,17.245 326.991,17.203 305.660 L 17.188 297.649 53.490 273.463 C 104.574 239.429,97.422 239.998,137.701 266.765 C 168.020 286.913,170.134 287.852,183.966 287.336 C 205.017 286.551,206.671 285.068,245.289 232.368 C 280.789 183.923,279.206 185.889,284.998 183.055 C 292.510 179.380,299.651 179.238,306.919 182.620 " stroke="none" fill="#283618" fill-rule="evenodd"></path>
  </g>
</svg>